<?xml version="1.0" encoding="UTF-8" standalone="no"?>
<!-- Uploaded to: SVG Repo, www.svgrepo.com, Generator: SVG Repo Mixer Tools -->

<svg
   width="800px"
   height="800px"
   viewBox="0 0 24 24"
   fill="none"
   version="1.1"
   id="svg189"
   sodipodi:docname="link-svgrepo-com.svg"
   inkscape:version="1.2.2 (732a01da63, 2022-12-09)"
   xmlns:inkscape="http://www.inkscape.org/namespaces/inkscape"
   xmlns:sodipodi="http://sodipodi.sourceforge.net/DTD/sodipodi-0.dtd"
   xmlns="http://www.w3.org/2000/svg"
   xmlns:svg="http://www.w3.org/2000/svg">
  <defs
     id="defs193" />
  <sodipodi:namedview
     id="namedview191"
     pagecolor="#ffffff"
     bordercolor="#000000"
     borderopacity="0.25"
     inkscape:showpageshadow="2"
     inkscape:pageopacity="0.0"
     inkscape:pagecheckerboard="0"
     inkscape:deskcolor="#d1d1d1"
     showgrid="false"
     inkscape:zoom="1.28375"
     inkscape:cx="399.61052"
     inkscape:cy="399.61052"
     inkscape:window-width="3440"
     inkscape:window-height="1377"
     inkscape:window-x="-8"
     inkscape:window-y="-8"
     inkscape:window-maximized="1"
     inkscape:current-layer="svg189" />
  <path
     d="M10.0464 14C8.54044 12.4882 8.67609 9.90087 10.3494 8.22108L15.197 3.35462C16.8703 1.67483 19.4476 1.53865 20.9536 3.05046C22.4596 4.56228 22.3239 7.14956 20.6506 8.82935L18.2268 11.2626"
     stroke="#1C274C"
     stroke-width="1.5"
     stroke-linecap="round"
     id="path185" />
  <path
     d="M13.9536 10C15.4596 11.5118 15.3239 14.0991 13.6506 15.7789L11.2268 18.2121L8.80299 20.6454C7.12969 22.3252 4.55237 22.4613 3.0464 20.9495C1.54043 19.4377 1.67609 16.8504 3.34939 15.1706L5.77323 12.7373"
     stroke="#1C274C"
     stroke-width="1.5"
     stroke-linecap="round"
     id="path187" />
  <path
     style="fill:#333333;stroke:#ffffff;stroke-width:0.778968"
     d="m 327.50204,490.04243 c -4.92708,-1.54285 -8.77825,-4.52988 -15.39044,-11.93707 -16.52322,-18.50985 -28.17074,-42.02829 -33.66653,-67.97878 -2.78511,-13.15095 -3.52269,-37.59807 -1.56287,-51.80136 4.34257,-31.47182 16.1866,-59.08414 36.9214,-86.07595 2.98279,-3.8829 35.82839,-37.54828 79.41993,-81.40214 C 489.00819,94.486053 495.6433,87.931042 504.64346,80.772197 539.03705,53.415089 579.8254,40.119642 621.83057,42.573672 c 47.86723,2.796505 91.74206,29.263778 115.54257,69.700488 32.26949,54.82535 26.10055,124.98636 -15.94664,181.36567 -8.06523,10.81432 -97.62123,100.86197 -103.3155,103.88269 -3.33285,1.76801 -4.85022,2.06614 -10.51606,2.06614 -5.65204,0 -7.19592,-0.30176 -10.54735,-2.06152 -2.15936,-1.13384 -5.43305,-3.69636 -7.27486,-5.69449 -4.75437,-5.15788 -6.57814,-9.70362 -6.58216,-16.40603 -0.006,-10.77282 -1.46003,-9.00962 50.36336,-61.09173 49.72486,-49.97311 52.26937,-52.87679 60.77157,-69.3495 8.11769,-15.72774 12.20248,-29.37922 13.83799,-46.24698 1.59485,-16.4484 -1.04106,-34.97551 -7.03579,-49.45261 -10.43496,-25.20012 -31.40753,-44.54619 -57.42841,-52.974623 -11.43504,-3.703926 -16.55,-4.393052 -32.599,-4.391978 -12.64381,8.57e-4 -15.97862,0.264651 -22.88646,1.810465 -21.40666,4.790306 -41.97145,15.280436 -57.81341,29.490716 -10.33482,9.27036 -173.90549,174.12307 -178.01339,179.40864 -12.75271,16.40868 -21.05365,33.84148 -25.2784,53.08718 -2.27458,10.36177 -2.86117,30.38836 -1.18841,40.57345 2.29892,13.99764 8.07451,28.94113 15.30109,39.58935 1.61654,2.38194 5.75009,7.57388 9.18565,11.53763 7.01427,8.09265 8.69723,11.80507 8.69723,19.18512 0,7.38521 -1.85002,11.71387 -7.33896,17.17166 -3.56643,3.54618 -5.76644,5.03613 -8.91408,6.037 -4.86775,1.54782 -10.85795,1.63837 -15.34911,0.23202 z"
     id="path489"
     transform="scale(0.03)" />
  <path
     style="fill:#666666;stroke:#ffffff;stroke-width:0.778968"
     d="M 178.77159,757.4352 C 113.36547,754.20281 58.442147,706.97019 45.294612,642.64849 35.803496,596.21509 47.604784,547.88482 78.573501,506.36017 86.638733,495.54585 176.19473,405.4982 181.889,402.47748 c 3.33285,-1.76801 4.85022,-2.06614 10.51606,-2.06614 5.64976,0 7.19269,0.30131 10.51607,2.05364 12.31002,6.49074 17.30275,20.14611 11.77806,32.21363 -1.8709,4.08658 -7.4104,9.93987 -48.25312,50.9865 -49.72486,49.97311 -52.26937,52.87679 -60.77157,69.3495 -5.52931,10.71283 -8.040095,17.22251 -10.665918,27.65335 -5.278913,20.97001 -4.843353,41.42588 1.292752,60.71338 7.560686,23.76538 24.469056,43.63481 46.649556,54.81902 13.48189,6.79805 24.34428,9.40706 41.66449,10.00727 10.9302,0.37877 14.29462,0.19882 22.48983,-1.20289 23.08945,-3.9492 45.45302,-14.83456 62.88081,-30.60694 3.46797,-3.13856 44.14362,-43.73957 90.39035,-90.22448 54.02633,-54.30458 85.81159,-86.82849 88.915,-90.98127 17.22006,-23.04271 25.87903,-47.98649 25.87903,-74.5494 0,-16.42334 -2.96784,-30.35875 -9.31188,-43.72359 -4.56687,-9.62093 -8.12274,-14.94107 -16.26548,-24.33569 -7.01427,-8.09265 -8.69723,-11.80507 -8.69723,-19.18512 0,-6.51304 1.80836,-11.31763 6.02488,-16.00742 8.30378,-9.2358 21.45231,-11.16737 31.4197,-4.61567 4.81987,3.16817 14.58257,14.36279 21.38178,24.51793 10.45878,15.62095 17.738,33.16536 21.81572,52.58033 2.51935,11.99517 3.50576,36.33961 1.97805,48.81824 -4.00973,32.7525 -16.60627,62.6385 -37.70135,89.44855 -3.08319,3.91849 -37.9519,39.6509 -79.05444,81.01266 -94.77999,95.37772 -102.18182,102.69674 -110.88186,109.64124 -34.8507,27.81835 -74.09277,40.76686 -117.1067,38.64109 z"
     id="path491"
     transform="scale(0.03)" />
  <path
     style="fill:#666666;stroke:#ffffff;stroke-width:0.778968"
     d="m 327.41503,488.96428 c -5.1773,-1.85251 -9.85076,-5.71494 -16.53336,-13.6642 -17.06721,-20.30221 -28.54937,-45.63259 -32.89736,-72.57369 -1.5628,-9.68339 -1.32335,-40.23445 0.38711,-49.39291 5.25268,-28.12483 14.69604,-50.46178 31.14139,-73.66058 7.16218,-10.10339 28.99759,-32.64503 118.91952,-122.76577 75.54335,-75.710374 77.63524,-77.644404 96.20253,-88.94277 36.06165,-21.943842 79.09245,-29.808637 118.40311,-21.640692 29.34236,6.096736 59.30823,23.467795 78.33034,45.407676 45.22225,52.158836 47.46445,129.237206 5.59116,192.202446 -5.59307,8.41034 -9.95536,13.63565 -21.78548,26.09542 -24.05788,25.33835 -85.19723,85.59771 -88.34916,87.07755 -4.21672,1.97974 -14.7082,1.83902 -19.03452,-0.25532 -4.0631,-1.96691 -10.03756,-8.24217 -12.03376,-12.63962 -2.06607,-4.5514 -2.08551,-13.57946 -0.0378,-17.54373 2.44512,-4.73359 7.04395,-9.64709 47.54341,-50.79662 21.29403,-21.63583 41.43039,-42.31743 44.74746,-45.9591 25.78542,-28.30877 36.89781,-69.94443 28.37882,-106.32912 -8.06068,-34.42721 -33.46344,-60.36918 -68.41378,-69.865916 -6.12251,-1.663616 -8.14668,-1.799126 -26.87439,-1.799126 -19.78027,0 -20.43462,0.05068 -28.02463,2.170668 -16.15931,4.513501 -31.57636,11.935554 -44.96959,21.649214 -4.59219,3.33056 -27.71865,26.01923 -79.97007,78.45622 -92.03514,92.36199 -106.62895,107.46752 -112.66344,116.61387 -9.43575,14.30158 -16.89738,32.31604 -19.61111,47.34671 -1.89071,10.47218 -1.86018,33.75744 0.0559,42.62408 2.71818,12.5784 8.99673,27.63751 15.10192,36.222 1.52348,2.14217 5.12588,6.69913 8.00534,10.12659 2.87945,3.42745 6.05077,7.79938 7.04736,9.71539 2.40507,4.62388 2.86836,11.78924 1.10544,17.09688 -1.62389,4.8891 -7.69967,11.76743 -12.40755,14.04648 -4.87613,2.36049 -12.31886,2.77991 -17.35481,0.97797 z"
     id="path562"
     transform="scale(0.03)" />
</svg>
